<?xml version="1.0" standalone="no"?>
<!DOCTYPE svg PUBLIC "-//W3C//DTD SVG 20010904//EN"
 "http://www.w3.org/TR/2001/REC-SVG-20010904/DTD/svg10.dtd">
<svg version="1.0" xmlns="http://www.w3.org/2000/svg"
 width="291.000000pt" height="291.000000pt" viewBox="0 0 291.000000 291.000000"
 preserveAspectRatio="xMidYMid meet">
<metadata>
Created by potrace 1.11, written by Peter Selinger 2001-2013
</metadata>
<g transform="translate(0.000000,291.000000) scale(0.100000,-0.100000)"
fill="#000000" stroke="none">
<path d="M1378 2696 c-26 -11 -1275 -1045 -1332 -1103 -15 -14 -26 -35 -24
-45 5 -29 119 -165 150 -178 23 -10 32 -10 55 5 15 10 295 241 622 514 328
273 601 500 608 504 8 5 238 -181 630 -509 340 -284 624 -518 631 -521 27 -11
60 10 113 74 67 81 80 104 73 129 -3 11 -92 91 -198 179 -107 88 -199 170
-205 183 -7 16 -11 140 -11 386 0 339 -1 364 -18 379 -16 15 -46 17 -209 17
-246 0 -228 18 -229 -219 -1 -97 -4 -175 -8 -174 -4 1 -105 84 -225 184 -120
100 -233 188 -251 195 -39 17 -135 17 -172 0z"/>
<path d="M1259 2060 c-836 -690 -906 -749 -913 -773 -10 -39 -7 -920 4 -959 6
-20 26 -50 46 -67 l35 -31 397 2 397 3 3 373 2 372 243 -2 242 -3 3 -372 2
-373 394 0 c393 0 393 0 427 23 19 13 39 38 46 57 13 39 18 977 5 995 -4 6
-59 53 -122 106 -63 52 -204 169 -313 259 -109 91 -216 179 -237 195 -21 17
-97 80 -170 140 -207 173 -262 215 -280 215 -9 0 -104 -72 -211 -160z"/>
</g>
</svg>
