<?xml version="1.0" encoding="utf-8"?>
<!-- Generator: Adobe Illustrator 22.0.0, SVG Export Plug-In . SVG Version: 6.00 Build 0)  -->
<svg version="1.1" xmlns="http://www.w3.org/2000/svg" xmlns:xlink="http://www.w3.org/1999/xlink" x="0px" y="0px"
	 viewBox="0 0 24 24" style="enable-background:new 0 0 24 24;" xml:space="preserve">
<style type="text/css">
	.st0{fill:#FFFFFF;}
	.st1{fill:#3B5998;}
	.st2{fill:#DD4B39;}
	.st3{fill:#007BB6;}
	.st4{fill:#CB2027;}
	.st5{fill:#00ACED;}
	.st6{fill:#45668E;}
	.st7{fill:#BB0000;}
	.st8{fill:#F2720C;}
	.st9{fill:#005FF9;}
	.st10{fill:url(#insta_2_);}
	.st11{opacity:0.1;}
      path { display: none }
      path:target { display: inline }
	  #kont { display: inline }
</style>
<g id="bg">
	<rect id="dgw" x="1.5" y="1.5" class="st0" width="21" height="21"/>
</g>
<g id="ico">
	<path id="fb" class="st1" d="M19,0H5C2.239,0,0,2.239,0,5v14c0,2.761,2.239,5,5,5h14c2.762,0,5-2.239,5-5V5C24,2.239,21.762,0,19,0
		z M16,7c0,0-1.428,0-1.924,0C13.461,7,13,7.252,13,7.889C13,8.419,13,9,13,9h3l-0.238,3H13v8h-3v-8H8V9h2c0,0,0-0.163,0-1.923
		C10,5.055,11.064,4,13.461,4C13.853,4,16,4,16,4V7z"/>
	<path id="g-plus" class="st2" d="M19,0H5C2.239,0,0,2.239,0,5v14c0,2.761,2.239,5,5,5h14c2.762,0,5-2.239,5-5V5
		C24,2.239,21.762,0,19,0z M8.666,16.666C6.086,16.666,4,14.58,4,12s2.086-4.667,4.666-4.667c1.26,0,2.314,0.46,3.127,1.22
		l-1.267,1.22c-0.347-0.333-0.954-0.72-1.86-0.72c-1.593,0-2.893,1.32-2.893,2.947c0,1.627,1.3,2.947,2.893,2.947
		c1.847,0,2.54-1.328,2.647-2.014H8.666v-1.6h4.406c0.041,0.233,0.074,0.467,0.074,0.773C13.146,14.773,11.36,16.666,8.666,16.666z
		 M20,12.667h-2v2h-1.334v-2h-2v-1.333h2v-2H18v2h2V12.667z"/>
	<path id="linkedin" class="st3" d="M19,0H5C2.239,0,0,2.239,0,5v14c0,2.761,2.239,5,5,5h14c2.762,0,5-2.239,5-5V5
		C24,2.239,21.762,0,19,0z M8,19H5V8h3V19z M6.5,6.732c-0.966,0-1.75-0.79-1.75-1.764c0-0.974,0.784-1.764,1.75-1.764
		s1.75,0.79,1.75,1.764C8.25,5.942,7.467,6.732,6.5,6.732z M20,19h-3c0,0,0-4.068,0-5.604c0-3.369-4-3.114-4,0
		C13,15.039,13,19,13,19h-3V8h3v1.765c1.396-2.586,7-2.777,7,2.476C20,15.098,20,19,20,19z"/>
	<path id="pinterest" class="st4" d="M19,0H5C2.239,0,0,2.239,0,5v14c0,2.761,2.239,5,5,5h14c2.762,0,5-2.239,5-5V5
		C24,2.239,21.762,0,19,0z M12,20c-0.825,0-1.62-0.125-2.369-0.356c0.326-0.532,0.813-1.403,0.994-2.099
		c0.097-0.373,0.499-1.901,0.499-1.901c0.261,0.499,1.023,0.919,1.833,0.919c2.414,0,4.152-2.219,4.152-4.976
		c0-2.643-2.157-4.62-4.933-4.62c-3.452,0-5.286,2.317-5.286,4.841c0,1.174,0.625,2.634,1.624,3.099
		c0.151,0.071,0.233,0.039,0.268-0.107c0.026-0.109,0.161-0.654,0.222-0.906c0.019-0.081,0.01-0.15-0.056-0.231
		c-0.33-0.4-0.595-1.137-0.595-1.825c0-1.765,1.336-3.472,3.612-3.472c1.965,0,3.341,1.339,3.341,3.255
		c0,2.165-1.093,3.664-2.515,3.664c-0.786,0-1.374-0.649-1.185-1.446c0.226-0.951,0.663-1.977,0.663-2.664
		c0-0.614-0.33-1.127-1.012-1.127c-0.803,0-1.448,0.831-1.448,1.943c0,0.709,0.239,1.188,0.239,1.188s-0.793,3.354-0.938,3.978
		c-0.161,0.69-0.098,1.661-0.028,2.294C6.108,18.284,4,15.39,4,12c0-4.418,3.581-8,8-8c4.418,0,8,3.582,8,8
		C20,16.418,16.418,20,12,20z"/>
	<path id="twitter" class="st5" d="M19,0H5C2.239,0,0,2.239,0,5v14c0,2.761,2.239,5,5,5h14c2.762,0,5-2.239,5-5V5
		C24,2.239,21.762,0,19,0z M18.861,9.237c0.209,4.617-3.234,9.765-9.33,9.765c-1.853,0-3.579-0.544-5.032-1.475
		c1.742,0.204,3.48-0.279,4.86-1.359c-1.437-0.027-2.649-0.976-3.066-2.28c0.515,0.098,1.021,0.069,1.482-0.057
		c-1.579-0.317-2.668-1.739-2.633-3.26c0.442,0.246,0.949,0.394,1.486,0.411c-1.461-0.977-1.876-2.907-1.016-4.383
		c1.619,1.986,4.038,3.293,6.766,3.43c-0.478-2.053,1.08-4.03,3.199-4.03c0.943,0,1.797,0.398,2.395,1.037
		c0.748-0.147,1.451-0.421,2.086-0.796c-0.246,0.767-0.766,1.41-1.443,1.816c0.664-0.08,1.297-0.256,1.885-0.517
		C20.06,8.196,19.504,8.774,18.861,9.237z"/>
	<path id="vk" class="st6" d="M19,0H5C2.239,0,0,2.239,0,5v14c0,2.761,2.239,5,5,5h14c2.762,0,5-2.239,5-5V5C24,2.239,21.762,0,19,0
		z M19.25,16.996c-0.445,0-1.676,0-2.134,0c-1.205,0-1.409-0.686-2.401-1.679c-0.897-0.898-1.395-0.21-1.374,1.068
		c0.006,0.339-0.161,0.61-0.566,0.61c-1.264,0-3.08,0.178-4.918-1.807C5.974,13.157,4,9.079,4,8.677C4,8.44,4.196,8.333,4.524,8.333
		c0.467,0,1.855,0,2.17,0c0.574,0,0.623,0.284,0.783,0.649c0.667,1.521,2.265,4.574,2.691,2.87c0.244-0.978,0.344-3.245-0.703-3.44
		c-0.594-0.11,0.452-0.746,1.968-0.746c0.378,0,0.786,0.04,1.205,0.137c0.769,0.179,0.772,0.524,0.761,1.026
		c-0.039,1.903-0.269,3.184,0.233,3.507c0.479,0.31,1.739-1.717,2.403-3.281c0.183-0.433,0.219-0.722,0.734-0.722
		c2.576,0,2.383,0,2.654,0c1.39,0-0.182,1.997-1.383,3.557c-0.968,1.256-0.916,1.279,0.209,2.324c0.803,0.744,1.75,1.76,1.75,2.336
		C20,16.822,19.788,16.996,19.25,16.996z"/>
	<path id="youtube" class="st7" d="M9.279,13.519H8.34v5.027H7.432v-5.027h-0.94v-0.853h2.788V13.519z M14.674,15.241v2.406
		c0,0.537-0.2,0.954-0.736,0.954c-0.296,0-0.541-0.108-0.767-0.389v0.334h-0.813v-5.881h0.813v1.894
		c0.183-0.223,0.429-0.406,0.718-0.406C14.478,14.153,14.674,14.652,14.674,15.241z M13.844,15.29c0-0.146-0.027-0.258-0.086-0.334
		c-0.098-0.129-0.279-0.142-0.42-0.07c-0.057,0.028-0.111,0.072-0.167,0.132v2.703c0.066,0.07,0.13,0.122,0.19,0.152
		c0.132,0.067,0.324,0.071,0.413-0.045c0.046-0.061,0.069-0.16,0.069-0.298V15.29z M11.497,9.431c0.228,0,0.354-0.183,0.354-0.431
		V6.881c0-0.255-0.111-0.434-0.371-0.434c-0.237,0-0.353,0.184-0.353,0.434V9C11.128,9.24,11.264,9.431,11.497,9.431z
		 M10.764,17.502c-0.099,0.122-0.317,0.324-0.475,0.324c-0.172,0-0.215-0.117-0.215-0.292v-3.325H9.269v3.626
		c0,0.88,0.597,0.885,1.031,0.636c0.16-0.093,0.315-0.227,0.464-0.403v0.479h0.807v-4.338h-0.807V17.502z M24,5v14
		c0,2.761-2.238,5-5,5H5c-2.761,0-5-2.239-5-5V5c0-2.761,2.239-5,5-5h14C21.762,0,24,2.239,24,5z M13.434,9.427
		c0,0.45,0.137,0.813,0.592,0.813c0.256,0,0.611-0.133,0.979-0.569v0.503h0.847V5.62h-0.847v3.457
		c-0.104,0.129-0.333,0.341-0.498,0.341c-0.182,0-0.226-0.124-0.226-0.307V5.62h-0.847V9.427z M10.257,6.806v2.233
		c0,0.803,0.419,1.22,1.24,1.22c0.682,0,1.218-0.456,1.218-1.22V6.806c0-0.713-0.531-1.224-1.218-1.224
		C10.752,5.582,10.257,6.075,10.257,6.806z M7.102,4l1.135,3.67v2.504H9.19V7.67L10.3,4H9.331L8.72,6.468L8.062,4H7.102z
		 M18.666,15.666c-0.014-2.977-0.232-4.116-2.111-4.244c-1.734-0.118-7.377-0.118-9.109,0c-1.876,0.128-2.098,1.262-2.111,4.244
		c0.014,2.979,0.233,4.117,2.111,4.245c1.732,0.118,7.375,0.119,9.109,0C18.432,19.783,18.652,18.649,18.666,15.666z M17.655,15.374
		v1.105h-1.542v0.819c0,0.325,0.027,0.606,0.351,0.606c0.34,0,0.36-0.229,0.36-0.606v-0.302h0.83v0.326
		c0,0.835-0.358,1.342-1.208,1.342c-0.771,0-1.164-0.562-1.164-1.342v-1.948c0-0.752,0.497-1.275,1.225-1.275
		C17.281,14.099,17.655,14.591,17.655,15.374z M16.825,15.367c0-0.294-0.062-0.509-0.353-0.509c-0.299,0-0.359,0.21-0.359,0.509
		v0.439h0.712V15.367z"/>
	<path id="ok" class="st8" d="M13.84,7.82c0,1.02-0.82,1.85-1.84,1.85s-1.84-0.83-1.84-1.85c0-1.01,0.82-1.84,1.84-1.84
		S13.84,6.81,13.84,7.82z M24,5v14c0,2.76-2.24,5-5,5H5c-2.76,0-5-2.24-5-5V5c0-2.76,2.24-5,5-5h14C21.76,0,24,2.24,24,5z
		 M7.54,7.82c0,2.46,2,4.46,4.46,4.46s4.46-2,4.46-4.46c0-2.45-2-4.45-4.46-4.45S7.54,5.37,7.54,7.82z M16.8,13.04
		c-0.38-0.61-1.19-0.79-1.8-0.41c-1.83,1.15-4.18,1.15-6,0c-0.61-0.38-1.42-0.2-1.8,0.41s-0.2,1.42,0.41,1.8
		c0.81,0.51,1.68,0.87,2.59,1.07L7.71,18.4c-0.51,0.51-0.51,1.34,0,1.85c0.25,0.25,0.59,0.38,0.92,0.38s0.67-0.13,0.92-0.38L12,17.8
		l2.45,2.45c0.51,0.51,1.33,0.51,1.84,0c0.51-0.51,0.51-1.34,0-1.85l-2.49-2.49c0.91-0.2,1.78-0.56,2.59-1.07
		C17,14.46,17.18,13.65,16.8,13.04z"/>
	<path id="mir" class="st9" d="M19,0H5C2.24,0,0,2.24,0,5v14c0,2.76,2.24,5,5,5h14c2.76,0,5-2.24,5-5V5C24,2.24,21.76,0,19,0z
		 M15.3,6.26C16,6.22,16.88,7,16.76,7.76c0.04,1.01-0.71,1.52-1.49,1.52c-0.79,0-1.5-0.66-1.48-1.54C13.81,6.89,14.44,6.3,15.3,6.26
		z M8.71,6.25c0.76,0.01,1.49,0.6,1.56,1.49c0.06,0.79-0.73,1.57-1.56,1.53C7.85,9.23,7.19,8.5,7.24,7.76
		C7.19,6.94,8.03,6.24,8.71,6.25z M20.21,16.86c-0.3,0.34-1.13,0.34-1.39-0.21c-0.11-0.22-0.24-0.44-0.37-0.65
		c-0.12-0.21-0.26-0.41-0.4-0.62c-2.85,3.05-8.98,3.26-12.11,0c-0.24,0.41-0.49,0.81-0.72,1.22c-0.26,0.48-0.77,0.62-1.25,0.41
		c-0.43-0.2-0.61-0.84-0.35-1.28c0.41-0.73,0.85-1.46,1.27-2.18c0.21-0.36,0.42-0.72,0.63-1.08c0.21-0.36,0.66-0.56,1.02-0.46
		c0.47,0.14,0.73,0.48,0.7,0.95c-0.01,0.13-0.06,0.26-0.13,0.37c-0.16,0.25-0.1,0.44,0.08,0.65c0.89,1.02,2.02,1.57,3.32,1.79
		c0.67,0.12,1.36,0.19,2.04,0.14c1.45-0.11,2.81-0.51,3.9-1.57c0.08-0.08,0.17-0.17,0.26-0.25c0.29-0.25,0.38-0.49,0.16-0.87
		c-0.23-0.42,0.01-0.9,0.45-1.13c0.41-0.21,0.88-0.1,1.13,0.33c0.65,1.08,1.27,2.18,1.89,3.27C20.6,16.15,20.53,16.5,20.21,16.86z"
		/>
	<radialGradient id="insta_2_" cx="3.872" cy="23.677" r="28.9613" gradientUnits="userSpaceOnUse">
		<stop  offset="0" style="stop-color:#FEC053"/>
		<stop  offset="0.3273" style="stop-color:#F2203E"/>
		<stop  offset="0.6485" style="stop-color:#B729A8"/>
		<stop  offset="1" style="stop-color:#5342D6"/>
	</radialGradient>
	<path id="insta" class="st10" d="M15.233,5.488C14.39,5.45,14.136,5.442,12,5.442S9.611,5.45,8.768,5.488
		c-2.17,0.099-3.181,1.127-3.279,3.279C5.45,9.611,5.441,9.864,5.441,12c0,2.136,0.009,2.39,0.047,3.232
		c0.099,2.148,1.106,3.181,3.279,3.279C9.61,18.551,9.864,18.559,12,18.559c2.137,0,2.39-0.008,3.233-0.047
		c2.17-0.098,3.18-1.129,3.279-3.279c0.038-0.843,0.046-1.097,0.046-3.232c0-2.136-0.008-2.389-0.046-3.232
		C18.413,6.616,17.401,5.587,15.233,5.488z M12,16.108c-2.269,0-4.108-1.84-4.108-4.108S9.731,7.892,12,7.892
		S16.108,9.731,16.108,12S14.269,16.108,12,16.108z M16.271,8.69c-0.53,0-0.96-0.43-0.96-0.96s0.43-0.96,0.96-0.96
		s0.96,0.43,0.96,0.96S16.801,8.69,16.271,8.69z M14.667,12c0,1.473-1.194,2.666-2.667,2.666S9.333,13.473,9.333,12
		S10.527,9.333,12,9.333S14.667,10.527,14.667,12z M19,0H5C2.239,0,0,2.239,0,5v14c0,2.761,2.239,5,5,5h14c2.762,0,5-2.239,5-5V5
		C24,2.239,21.762,0,19,0z M19.952,15.298c-0.132,2.909-1.751,4.52-4.653,4.654C14.445,19.99,14.173,20,12,20
		s-2.444-0.01-3.298-0.048c-2.908-0.134-4.52-1.748-4.654-4.654C4.009,14.445,4,14.173,4,12c0-2.172,0.009-2.445,0.048-3.298
		c0.134-2.908,1.748-4.521,4.654-4.653C9.556,4.009,9.827,4,12,4s2.445,0.009,3.299,0.048c2.908,0.133,4.523,1.751,4.653,4.653
		C19.991,9.555,20,9.828,20,12C20,14.173,19.991,14.445,19.952,15.298z"/>
</g>
<g id="shadow" class="st11">
	<path id="kont" d="M0,17.833V19c0,2.761,2.239,5,5,5h14c2.762,0,5-2.239,5-5V7C13.708,5.958,0,15.072,0,17.833z"/>
</g>
</svg>
